<mxfile host="app.diagrams.net" modified="2024-03-04T16:54:58.254Z" agent="Mozilla/5.0 (Windows NT 10.0; Win64; x64) AppleWebKit/537.36 (KHTML, like Gecko) Chrome/122.0.0.0 Safari/537.36" etag="vdrayQAmOXPRfbCagkEv" version="24.0.0" type="device">
  <diagram name="Page-1" id="vntMvkzGxNJ9EHigb2JI">
    <mxGraphModel dx="1050" dy="522" grid="1" gridSize="10" guides="1" tooltips="1" connect="1" arrows="1" fold="1" page="1" pageScale="1" pageWidth="850" pageHeight="1100" math="0" shadow="0">
      <root>
        <mxCell id="0" />
        <mxCell id="1" parent="0" />
        <mxCell id="rcdGEAmQTFtLaSU7WSCd-1" value="" style="ellipse;html=1;shape=startState;fillColor=#000000;strokeColor=#ff0000;" vertex="1" parent="1">
          <mxGeometry x="50" y="50" width="30" height="30" as="geometry" />
        </mxCell>
        <mxCell id="rcdGEAmQTFtLaSU7WSCd-2" value="" style="edgeStyle=orthogonalEdgeStyle;html=1;verticalAlign=bottom;endArrow=open;endSize=8;strokeColor=#120000;rounded=0;" edge="1" source="rcdGEAmQTFtLaSU7WSCd-1" parent="1" target="rcdGEAmQTFtLaSU7WSCd-3">
          <mxGeometry relative="1" as="geometry">
            <mxPoint x="150" y="65" as="targetPoint" />
          </mxGeometry>
        </mxCell>
        <mxCell id="rcdGEAmQTFtLaSU7WSCd-3" value="Http Endpoint&amp;nbsp;" style="html=1;align=center;verticalAlign=top;rounded=1;absoluteArcSize=1;arcSize=10;dashed=0;whiteSpace=wrap;fillColor=#fff2cc;strokeColor=#d6b656;" vertex="1" parent="1">
          <mxGeometry x="150" y="45" width="140" height="40" as="geometry" />
        </mxCell>
        <mxCell id="rcdGEAmQTFtLaSU7WSCd-4" value="" style="html=1;verticalAlign=bottom;labelBackgroundColor=none;endArrow=block;endFill=1;rounded=0;exitX=1;exitY=0.5;exitDx=0;exitDy=0;" edge="1" parent="1" source="rcdGEAmQTFtLaSU7WSCd-3" target="rcdGEAmQTFtLaSU7WSCd-5">
          <mxGeometry width="160" relative="1" as="geometry">
            <mxPoint x="340" y="270" as="sourcePoint" />
            <mxPoint x="380" y="65" as="targetPoint" />
          </mxGeometry>
        </mxCell>
        <mxCell id="rcdGEAmQTFtLaSU7WSCd-5" value="Scrapper Config" style="html=1;align=center;verticalAlign=top;rounded=1;absoluteArcSize=1;arcSize=10;dashed=0;whiteSpace=wrap;fillColor=#fff2cc;strokeColor=#d6b656;" vertex="1" parent="1">
          <mxGeometry x="340" y="45" width="140" height="40" as="geometry" />
        </mxCell>
        <mxCell id="rcdGEAmQTFtLaSU7WSCd-6" value="&amp;lt;10000 Byte" style="rhombus;whiteSpace=wrap;html=1;fillColor=#fff2cc;strokeColor=#d6b656;" vertex="1" parent="1">
          <mxGeometry x="560" y="130" width="90" height="60" as="geometry" />
        </mxCell>
        <mxCell id="rcdGEAmQTFtLaSU7WSCd-7" value="No" style="edgeStyle=orthogonalEdgeStyle;html=1;align=left;verticalAlign=bottom;endArrow=open;endSize=8;strokeColor=#170000;rounded=0;entryX=1;entryY=0.25;entryDx=0;entryDy=0;exitX=0.5;exitY=0;exitDx=0;exitDy=0;" edge="1" source="rcdGEAmQTFtLaSU7WSCd-6" parent="1" target="rcdGEAmQTFtLaSU7WSCd-5">
          <mxGeometry x="-1" relative="1" as="geometry">
            <mxPoint x="620" y="350" as="targetPoint" />
          </mxGeometry>
        </mxCell>
        <mxCell id="rcdGEAmQTFtLaSU7WSCd-8" value="yes" style="edgeStyle=orthogonalEdgeStyle;html=1;align=left;verticalAlign=top;endArrow=open;endSize=8;strokeColor=#170000;rounded=0;exitX=0.5;exitY=1;exitDx=0;exitDy=0;" edge="1" source="rcdGEAmQTFtLaSU7WSCd-6" parent="1">
          <mxGeometry x="-1" relative="1" as="geometry">
            <mxPoint x="470" y="260" as="targetPoint" />
            <Array as="points">
              <mxPoint x="605" y="260" />
            </Array>
          </mxGeometry>
        </mxCell>
        <mxCell id="rcdGEAmQTFtLaSU7WSCd-10" value="90 Sec check" style="rhombus;whiteSpace=wrap;html=1;fillColor=#fff2cc;strokeColor=#d6b656;" vertex="1" parent="1">
          <mxGeometry x="355" y="130" width="110" height="60" as="geometry" />
        </mxCell>
        <mxCell id="rcdGEAmQTFtLaSU7WSCd-11" value="No&amp;nbsp;" style="html=1;verticalAlign=bottom;endArrow=block;curved=0;rounded=0;exitX=1;exitY=0.5;exitDx=0;exitDy=0;entryX=0;entryY=0.5;entryDx=0;entryDy=0;" edge="1" parent="1" source="rcdGEAmQTFtLaSU7WSCd-10" target="rcdGEAmQTFtLaSU7WSCd-6">
          <mxGeometry x="-0.0037" y="3" width="80" relative="1" as="geometry">
            <mxPoint x="380" y="270" as="sourcePoint" />
            <mxPoint x="500" y="200" as="targetPoint" />
            <Array as="points" />
            <mxPoint as="offset" />
          </mxGeometry>
        </mxCell>
        <mxCell id="rcdGEAmQTFtLaSU7WSCd-13" value="Yes&amp;nbsp;" style="html=1;verticalAlign=bottom;endArrow=block;curved=0;rounded=0;exitX=0.5;exitY=1;exitDx=0;exitDy=0;" edge="1" parent="1" source="rcdGEAmQTFtLaSU7WSCd-10" target="rcdGEAmQTFtLaSU7WSCd-20">
          <mxGeometry width="80" relative="1" as="geometry">
            <mxPoint x="380" y="270" as="sourcePoint" />
            <mxPoint x="370" y="320" as="targetPoint" />
          </mxGeometry>
        </mxCell>
        <mxCell id="rcdGEAmQTFtLaSU7WSCd-14" value="Discord Webhook" style="html=1;align=center;verticalAlign=top;rounded=1;absoluteArcSize=1;arcSize=10;dashed=0;whiteSpace=wrap;fillColor=#fff2cc;strokeColor=#d6b656;" vertex="1" parent="1">
          <mxGeometry x="340" y="320" width="140" height="40" as="geometry" />
        </mxCell>
        <mxCell id="rcdGEAmQTFtLaSU7WSCd-15" value="" style="ellipse;html=1;shape=endState;fillColor=strokeColor;" vertex="1" parent="1">
          <mxGeometry x="50" y="405" width="30" height="30" as="geometry" />
        </mxCell>
        <mxCell id="rcdGEAmQTFtLaSU7WSCd-16" value="Discord Alert" style="html=1;align=center;verticalAlign=top;rounded=1;absoluteArcSize=1;arcSize=10;dashed=0;whiteSpace=wrap;fillColor=#fff2cc;strokeColor=#d6b656;" vertex="1" parent="1">
          <mxGeometry x="340" y="400" width="140" height="40" as="geometry" />
        </mxCell>
        <mxCell id="rcdGEAmQTFtLaSU7WSCd-17" value="" style="endArrow=classic;html=1;rounded=0;exitX=0.5;exitY=1;exitDx=0;exitDy=0;entryX=0.5;entryY=0;entryDx=0;entryDy=0;" edge="1" parent="1" source="rcdGEAmQTFtLaSU7WSCd-14" target="rcdGEAmQTFtLaSU7WSCd-16">
          <mxGeometry width="50" height="50" relative="1" as="geometry">
            <mxPoint x="400" y="300" as="sourcePoint" />
            <mxPoint x="450" y="250" as="targetPoint" />
          </mxGeometry>
        </mxCell>
        <mxCell id="rcdGEAmQTFtLaSU7WSCd-19" value="" style="endArrow=classic;html=1;rounded=0;exitX=0;exitY=0.5;exitDx=0;exitDy=0;" edge="1" parent="1" source="rcdGEAmQTFtLaSU7WSCd-16" target="rcdGEAmQTFtLaSU7WSCd-15">
          <mxGeometry width="50" height="50" relative="1" as="geometry">
            <mxPoint x="400" y="300" as="sourcePoint" />
            <mxPoint x="450" y="250" as="targetPoint" />
          </mxGeometry>
        </mxCell>
        <mxCell id="rcdGEAmQTFtLaSU7WSCd-20" value="Scrapper Logs" style="rounded=1;whiteSpace=wrap;html=1;fillColor=#fff2cc;strokeColor=#d6b656;" vertex="1" parent="1">
          <mxGeometry x="355" y="240" width="110" height="40" as="geometry" />
        </mxCell>
        <mxCell id="rcdGEAmQTFtLaSU7WSCd-21" value="" style="endArrow=classic;html=1;rounded=0;entryX=0.5;entryY=0;entryDx=0;entryDy=0;" edge="1" parent="1" source="rcdGEAmQTFtLaSU7WSCd-5" target="rcdGEAmQTFtLaSU7WSCd-10">
          <mxGeometry width="50" height="50" relative="1" as="geometry">
            <mxPoint x="400" y="300" as="sourcePoint" />
            <mxPoint x="450" y="250" as="targetPoint" />
          </mxGeometry>
        </mxCell>
        <mxCell id="rcdGEAmQTFtLaSU7WSCd-25" value="" style="endArrow=classic;html=1;rounded=0;exitX=0.5;exitY=1;exitDx=0;exitDy=0;entryX=0.5;entryY=0;entryDx=0;entryDy=0;" edge="1" parent="1" source="rcdGEAmQTFtLaSU7WSCd-20" target="rcdGEAmQTFtLaSU7WSCd-14">
          <mxGeometry width="50" height="50" relative="1" as="geometry">
            <mxPoint x="400" y="300" as="sourcePoint" />
            <mxPoint x="450" y="250" as="targetPoint" />
          </mxGeometry>
        </mxCell>
      </root>
    </mxGraphModel>
  </diagram>
</mxfile>
